<?xml version="1.0" encoding="UTF-8"?>
<svg xmlns="http://www.w3.org/2000/svg" xmlns:xlink="http://www.w3.org/1999/xlink" width="854" height="480" viewBox="0 0 854 480">
<defs>
<g>
<g id="glyph-0-0">
<path d="M 7.183594 -2.765625 C 7.105469 -2.753906 7 -2.738281 6.867188 -2.71875 C 6.734375 -2.695312 6.628906 -2.664062 6.546875 -2.625 C 6.449219 -2.578125 6.382812 -2.507812 6.339844 -2.417969 C 6.300781 -2.328125 6.28125 -2.226562 6.28125 -2.105469 L 6.28125 -1.566406 C 6.28125 -1.175781 6.28125 -0.914062 6.285156 -0.777344 C 6.292969 -0.640625 6.296875 -0.527344 6.304688 -0.4375 C 5.871094 -0.242188 5.4375 -0.09375 5.007812 0.0078125 C 4.578125 0.113281 4.160156 0.164062 3.746094 0.164062 C 3.300781 0.164062 2.875 0.0820312 2.464844 -0.0820312 C 2.054688 -0.25 1.699219 -0.484375 1.390625 -0.792969 C 1.082031 -1.101562 0.835938 -1.476562 0.65625 -1.921875 C 0.472656 -2.363281 0.382812 -2.859375 0.382812 -3.40625 C 0.382812 -3.933594 0.46875 -4.421875 0.640625 -4.875 C 0.816406 -5.324219 1.0625 -5.71875 1.382812 -6.050781 C 1.691406 -6.375 2.058594 -6.628906 2.488281 -6.808594 C 2.914062 -6.988281 3.375 -7.078125 3.863281 -7.078125 C 4.253906 -7.078125 4.59375 -7.03125 4.882812 -6.9375 C 5.171875 -6.84375 5.429688 -6.730469 5.648438 -6.597656 L 5.851562 -6.929688 L 6.242188 -6.929688 L 6.285156 -4.507812 L 5.882812 -4.507812 C 5.816406 -4.773438 5.730469 -5.035156 5.628906 -5.296875 C 5.527344 -5.554688 5.398438 -5.785156 5.238281 -5.992188 C 5.078125 -6.195312 4.882812 -6.359375 4.65625 -6.480469 C 4.425781 -6.605469 4.148438 -6.664062 3.832031 -6.664062 C 3.480469 -6.664062 3.171875 -6.59375 2.898438 -6.453125 C 2.625 -6.3125 2.386719 -6.101562 2.183594 -5.820312 C 1.984375 -5.550781 1.832031 -5.210938 1.722656 -4.808594 C 1.617188 -4.402344 1.5625 -3.953125 1.5625 -3.453125 C 1.5625 -3.015625 1.617188 -2.601562 1.722656 -2.210938 C 1.828125 -1.820312 1.980469 -1.484375 2.183594 -1.203125 C 2.386719 -0.910156 2.636719 -0.683594 2.941406 -0.519531 C 3.246094 -0.351562 3.589844 -0.269531 3.972656 -0.269531 C 4.257812 -0.269531 4.519531 -0.3125 4.757812 -0.398438 C 4.992188 -0.488281 5.160156 -0.582031 5.257812 -0.679688 C 5.285156 -0.847656 5.296875 -1.019531 5.300781 -1.191406 C 5.300781 -1.363281 5.304688 -1.511719 5.304688 -1.632812 L 5.304688 -2.011719 C 5.304688 -2.148438 5.285156 -2.269531 5.246094 -2.375 C 5.210938 -2.480469 5.132812 -2.558594 5.015625 -2.609375 C 4.90625 -2.65625 4.761719 -2.691406 4.578125 -2.71875 C 4.394531 -2.742188 4.25 -2.757812 4.144531 -2.765625 L 4.144531 -3.121094 L 7.183594 -3.121094 Z "/>
</g>
<g id="glyph-0-1">
<path d="M 6.304688 -2.039062 L 6.171875 0 L 0.421875 0 L 0.421875 -0.347656 C 0.515625 -0.351562 0.648438 -0.367188 0.8125 -0.386719 C 0.972656 -0.410156 1.078125 -0.429688 1.128906 -0.453125 C 1.230469 -0.503906 1.304688 -0.566406 1.34375 -0.644531 C 1.386719 -0.722656 1.40625 -0.820312 1.40625 -0.941406 L 1.40625 -5.921875 C 1.40625 -6.03125 1.386719 -6.125 1.351562 -6.207031 C 1.316406 -6.292969 1.242188 -6.359375 1.128906 -6.410156 C 1.039062 -6.453125 0.921875 -6.492188 0.773438 -6.523438 C 0.625 -6.554688 0.507812 -6.574219 0.421875 -6.582031 L 0.421875 -6.929688 L 5.78125 -6.929688 L 5.78125 -5.257812 L 5.414062 -5.257812 C 5.351562 -5.507812 5.210938 -5.769531 4.992188 -6.046875 C 4.777344 -6.324219 4.570312 -6.476562 4.375 -6.503906 C 4.273438 -6.515625 4.152344 -6.527344 4.015625 -6.53125 C 3.875 -6.539062 3.714844 -6.542969 3.535156 -6.542969 L 2.445312 -6.542969 L 2.445312 -3.789062 L 3.226562 -3.789062 C 3.476562 -3.789062 3.660156 -3.8125 3.777344 -3.859375 C 3.890625 -3.90625 3.992188 -3.984375 4.082031 -4.097656 C 4.152344 -4.191406 4.214844 -4.316406 4.265625 -4.476562 C 4.316406 -4.632812 4.347656 -4.78125 4.367188 -4.921875 L 4.730469 -4.921875 L 4.730469 -2.207031 L 4.367188 -2.207031 C 4.351562 -2.363281 4.316406 -2.527344 4.261719 -2.703125 C 4.203125 -2.875 4.144531 -3.003906 4.082031 -3.082031 C 3.980469 -3.207031 3.867188 -3.289062 3.738281 -3.328125 C 3.609375 -3.367188 3.4375 -3.390625 3.226562 -3.390625 L 2.445312 -3.390625 L 2.445312 -1.3125 C 2.445312 -1.105469 2.460938 -0.941406 2.492188 -0.820312 C 2.519531 -0.699219 2.578125 -0.609375 2.660156 -0.546875 C 2.746094 -0.484375 2.859375 -0.445312 3.007812 -0.425781 C 3.15625 -0.410156 3.363281 -0.398438 3.632812 -0.398438 C 3.738281 -0.398438 3.882812 -0.398438 4.058594 -0.398438 C 4.234375 -0.398438 4.382812 -0.40625 4.5 -0.421875 C 4.625 -0.433594 4.753906 -0.457031 4.886719 -0.492188 C 5.015625 -0.523438 5.109375 -0.570312 5.164062 -0.628906 C 5.316406 -0.785156 5.472656 -1.023438 5.636719 -1.339844 C 5.800781 -1.65625 5.90625 -1.890625 5.953125 -2.039062 Z "/>
</g>
<g id="glyph-0-2">
<path d="M 6.113281 -5.046875 L 5.777344 -5.046875 C 5.746094 -5.164062 5.695312 -5.304688 5.617188 -5.464844 C 5.539062 -5.628906 5.453125 -5.78125 5.359375 -5.921875 C 5.261719 -6.074219 5.15625 -6.203125 5.039062 -6.316406 C 4.925781 -6.429688 4.8125 -6.492188 4.703125 -6.507812 C 4.601562 -6.523438 4.476562 -6.53125 4.324219 -6.539062 C 4.167969 -6.542969 4.027344 -6.546875 3.898438 -6.546875 L 3.613281 -6.546875 L 3.613281 -1.007812 C 3.613281 -0.898438 3.636719 -0.800781 3.679688 -0.710938 C 3.726562 -0.621094 3.808594 -0.550781 3.921875 -0.503906 C 3.980469 -0.480469 4.101562 -0.449219 4.289062 -0.410156 C 4.476562 -0.371094 4.621094 -0.351562 4.726562 -0.347656 L 4.726562 0 L 1.453125 0 L 1.453125 -0.347656 C 1.546875 -0.351562 1.683594 -0.367188 1.871094 -0.386719 C 2.058594 -0.40625 2.1875 -0.429688 2.261719 -0.460938 C 2.367188 -0.5 2.445312 -0.5625 2.496094 -0.640625 C 2.546875 -0.722656 2.574219 -0.828125 2.574219 -0.960938 L 2.574219 -6.546875 L 2.289062 -6.546875 C 2.1875 -6.546875 2.0625 -6.546875 1.914062 -6.539062 C 1.765625 -6.535156 1.621094 -6.523438 1.484375 -6.507812 C 1.375 -6.496094 1.265625 -6.429688 1.148438 -6.316406 C 1.035156 -6.199219 0.929688 -6.070312 0.828125 -5.921875 C 0.734375 -5.777344 0.644531 -5.621094 0.570312 -5.457031 C 0.496094 -5.292969 0.445312 -5.15625 0.414062 -5.046875 L 0.0742188 -5.046875 L 0.0742188 -6.929688 L 6.113281 -6.929688 Z "/>
</g>
<g id="glyph-0-3">
</g>
<g id="glyph-0-4">
<path d="M 5.113281 0 L 0.539062 0 L 0.539062 -0.667969 C 0.625 -0.769531 0.746094 -0.882812 0.902344 -1.007812 C 1.058594 -1.132812 1.246094 -1.269531 1.460938 -1.414062 C 1.589844 -1.503906 1.746094 -1.597656 1.929688 -1.703125 C 2.109375 -1.804688 2.316406 -1.921875 2.546875 -2.042969 C 2.804688 -2.179688 3.003906 -2.300781 3.140625 -2.40625 C 3.28125 -2.507812 3.40625 -2.636719 3.519531 -2.789062 C 3.59375 -2.890625 3.65625 -3.015625 3.703125 -3.167969 C 3.746094 -3.320312 3.769531 -3.535156 3.769531 -3.816406 C 3.769531 -4.222656 3.660156 -4.519531 3.441406 -4.710938 C 3.222656 -4.898438 2.945312 -4.996094 2.601562 -4.996094 C 2.390625 -4.996094 2.191406 -4.953125 2 -4.871094 C 1.8125 -4.789062 1.671875 -4.671875 1.578125 -4.527344 C 1.601562 -4.421875 1.628906 -4.296875 1.664062 -4.15625 C 1.695312 -4.011719 1.714844 -3.871094 1.714844 -3.734375 C 1.714844 -3.613281 1.664062 -3.5 1.558594 -3.40625 C 1.457031 -3.308594 1.304688 -3.261719 1.101562 -3.261719 C 0.941406 -3.261719 0.816406 -3.316406 0.726562 -3.429688 C 0.640625 -3.542969 0.59375 -3.691406 0.59375 -3.882812 C 0.59375 -4.058594 0.644531 -4.234375 0.742188 -4.410156 C 0.839844 -4.589844 0.980469 -4.753906 1.164062 -4.902344 C 1.339844 -5.046875 1.5625 -5.167969 1.828125 -5.257812 C 2.089844 -5.351562 2.375 -5.394531 2.679688 -5.394531 C 3.347656 -5.394531 3.878906 -5.246094 4.269531 -4.949219 C 4.664062 -4.652344 4.859375 -4.253906 4.859375 -3.757812 C 4.859375 -3.519531 4.824219 -3.304688 4.753906 -3.109375 C 4.683594 -2.914062 4.570312 -2.742188 4.414062 -2.589844 C 4.242188 -2.425781 4.039062 -2.28125 3.808594 -2.164062 C 3.578125 -2.046875 3.222656 -1.878906 2.75 -1.667969 C 2.464844 -1.542969 2.203125 -1.410156 1.957031 -1.273438 C 1.714844 -1.132812 1.515625 -1 1.359375 -0.867188 L 5.113281 -0.867188 Z "/>
</g>
<g id="glyph-0-5">
<path d="M 5.679688 -3.335938 L 0.75 -3.335938 L 0.75 -3.945312 L 5.679688 -3.945312 L 5.679688 -3.335938 M 5.679688 -1.519531 L 0.75 -1.519531 L 0.75 -2.128906 L 5.679688 -2.128906 Z "/>
</g>
<g id="glyph-0-6">
<path d="M 5.015625 -4.5625 C 5.222656 -4.308594 5.378906 -4.015625 5.480469 -3.679688 C 5.582031 -3.34375 5.632812 -2.988281 5.632812 -2.621094 C 5.632812 -2.179688 5.570312 -1.78125 5.445312 -1.433594 C 5.316406 -1.082031 5.144531 -0.792969 4.921875 -0.5625 C 4.695312 -0.324219 4.421875 -0.144531 4.109375 -0.0234375 C 3.796875 0.0976562 3.449219 0.15625 3.066406 0.15625 C 2.648438 0.15625 2.273438 0.0859375 1.945312 -0.0546875 C 1.613281 -0.195312 1.347656 -0.386719 1.140625 -0.628906 C 0.929688 -0.882812 0.765625 -1.179688 0.660156 -1.519531 C 0.554688 -1.859375 0.503906 -2.226562 0.503906 -2.621094 C 0.503906 -3.007812 0.554688 -3.367188 0.65625 -3.691406 C 0.757812 -4.015625 0.917969 -4.3125 1.136719 -4.574219 C 1.347656 -4.828125 1.613281 -5.03125 1.945312 -5.175781 C 2.273438 -5.320312 2.648438 -5.394531 3.070312 -5.394531 C 3.515625 -5.394531 3.898438 -5.320312 4.21875 -5.171875 C 4.539062 -5.019531 4.804688 -4.816406 5.015625 -4.5625 M 4.554688 -2.621094 C 4.554688 -3.398438 4.421875 -3.996094 4.15625 -4.421875 C 3.890625 -4.851562 3.53125 -5.0625 3.078125 -5.0625 C 2.613281 -5.0625 2.25 -4.851562 1.984375 -4.421875 C 1.714844 -3.996094 1.582031 -3.398438 1.582031 -2.621094 C 1.582031 -1.886719 1.710938 -1.292969 1.964844 -0.847656 C 2.222656 -0.398438 2.585938 -0.175781 3.066406 -0.175781 C 3.546875 -0.175781 3.914062 -0.398438 4.171875 -0.847656 C 4.425781 -1.292969 4.554688 -1.886719 4.554688 -2.621094 Z "/>
</g>
</g>
</defs>
<g fill="rgb(51.372549%, 75.686275%, 40.392157%)" fill-opacity="1">
<use xlink:href="#glyph-0-0" x="30" y="29.169922"/>
<use xlink:href="#glyph-0-1" x="37" y="29.169922"/>
<use xlink:href="#glyph-0-2" x="44" y="29.169922"/>
<use xlink:href="#glyph-0-3" x="50" y="29.169922"/>
<use xlink:href="#glyph-0-4" x="52" y="29.169922"/>
<use xlink:href="#glyph-0-3" x="58" y="29.169922"/>
<use xlink:href="#glyph-0-5" x="60" y="29.169922"/>
<use xlink:href="#glyph-0-3" x="66" y="29.169922"/>
<use xlink:href="#glyph-0-4" x="68" y="29.169922"/>
<use xlink:href="#glyph-0-6" x="74" y="29.169922"/>
</g>
</svg>
